
<svg xmlns="http://www.w3.org/2000/svg" width="2490" height="1030" viewBox="0 0 2490 1030">
  <defs>
    <marker id="arrowhead" markerWidth="10" markerHeight="8" refX="9" refY="4" orient="auto" markerUnits="strokeWidth">
      <path d="M 0 0 L 10 4 L 0 8 z" fill="#1e3a5f" opacity="0.9" />
    </marker>
    <filter id="paper">
      <feTurbulence type="fractalNoise" baseFrequency="0.8" numOctaves="2" stitchTiles="stitch" result="noise"/>
      <feColorMatrix type="saturate" values="0"/>
      <feComponentTransfer>
        <feFuncA type="table" tableValues="0 0.025"/>
      </feComponentTransfer>
      <feBlend mode="multiply" in2="SourceGraphic"/>
    </filter>
  </defs>
  <rect x="0" y="0" width="100%" height="100%" fill="#ffffff"/>
  <g filter="url(#paper)">
    <text x="100" y="124" fill="#1e40af" font-size="34" font-family="Menlo, Monaco, monospace" text-anchor="start" dominant-baseline="alphabetic"><tspan x="100" dy="0">mkt53 业务架构图</tspan></text>
<text x="104" y="155" fill="#64748b" font-size="17" font-family="Menlo, Monaco, monospace" text-anchor="start" dominant-baseline="alphabetic"><tspan x="104" dy="0">Momcozy 市场洞察工作台：业务问题 -&gt; 页面域 -&gt; 数据治理 -&gt; 半月采集 -&gt; 腾讯云静态部署</tspan></text>

    <rect x="100" y="190" width="330" height="640" rx="12" ry="12" fill="#fff7ed" opacity="0.78" stroke="none" />

    <rect x="100" y="190" width="330" height="640" rx="12" ry="12" fill="none" stroke="#c2410c" stroke-width="3" stroke-dasharray="10 8" opacity="0.22" transform="translate(1.8 1.2)" />
    <rect x="100" y="190" width="330" height="640" rx="12" ry="12" fill="none" stroke="#c2410c" stroke-width="2" stroke-dasharray="10 8" opacity="0.92" />


<text x="116" y="226" fill="#1e40af" font-size="22" font-family="Menlo, Monaco, monospace" text-anchor="start" dominant-baseline="alphabetic"><tspan x="116" dy="0">用户与决策入口</tspan></text>

    <rect x="130" y="265" width="270" height="78" rx="12" ry="12" fill="#fed7aa" opacity="0.78" stroke="none" />

    <rect x="130" y="265" width="270" height="78" rx="12" ry="12" fill="none" stroke="#c2410c" stroke-width="3"  opacity="0.22" transform="translate(1.8 1.2)" />
    <rect x="130" y="265" width="270" height="78" rx="12" ry="12" fill="none" stroke="#c2410c" stroke-width="2"  opacity="0.92" />


<text x="265" y="295" fill="#374151" font-size="18" font-family="Menlo, Monaco, monospace" text-anchor="middle" dominant-baseline="alphabetic"><tspan x="265" dy="0">市场负责人</tspan><tspan x="265" dy="22.5">区域/品类机会</tspan></text>

    <rect x="130" y="385" width="270" height="78" rx="12" ry="12" fill="#fed7aa" opacity="0.78" stroke="none" />

    <rect x="130" y="385" width="270" height="78" rx="12" ry="12" fill="none" stroke="#c2410c" stroke-width="3"  opacity="0.22" transform="translate(1.8 1.2)" />
    <rect x="130" y="385" width="270" height="78" rx="12" ry="12" fill="none" stroke="#c2410c" stroke-width="2"  opacity="0.92" />


<text x="265" y="415" fill="#374151" font-size="18" font-family="Menlo, Monaco, monospace" text-anchor="middle" dominant-baseline="alphabetic"><tspan x="265" dy="0">竞品分析</tspan><tspan x="265" dy="22.5">SKU/价格/新品</tspan></text>

    <rect x="130" y="505" width="270" height="78" rx="12" ry="12" fill="#fed7aa" opacity="0.78" stroke="none" />

    <rect x="130" y="505" width="270" height="78" rx="12" ry="12" fill="none" stroke="#c2410c" stroke-width="3"  opacity="0.22" transform="translate(1.8 1.2)" />
    <rect x="130" y="505" width="270" height="78" rx="12" ry="12" fill="none" stroke="#c2410c" stroke-width="2"  opacity="0.92" />


<text x="265" y="535" fill="#374151" font-size="18" font-family="Menlo, Monaco, monospace" text-anchor="middle" dominant-baseline="alphabetic"><tspan x="265" dy="0">用户研究</tspan><tspan x="265" dy="22.5">画像/访谈/情感</tspan></text>

    <rect x="130" y="625" width="270" height="78" rx="12" ry="12" fill="#fed7aa" opacity="0.78" stroke="none" />

    <rect x="130" y="625" width="270" height="78" rx="12" ry="12" fill="none" stroke="#c2410c" stroke-width="3"  opacity="0.22" transform="translate(1.8 1.2)" />
    <rect x="130" y="625" width="270" height="78" rx="12" ry="12" fill="none" stroke="#c2410c" stroke-width="2"  opacity="0.92" />


<text x="265" y="655" fill="#374151" font-size="18" font-family="Menlo, Monaco, monospace" text-anchor="middle" dominant-baseline="alphabetic"><tspan x="265" dy="0">产品/运营</tspan><tspan x="265" dy="22.5">路线/投放/报告</tspan></text>

    <rect x="490" y="190" width="520" height="640" rx="12" ry="12" fill="#eff6ff" opacity="0.78" stroke="none" />

    <rect x="490" y="190" width="520" height="640" rx="12" ry="12" fill="none" stroke="#1e3a5f" stroke-width="3" stroke-dasharray="10 8" opacity="0.22" transform="translate(1.8 1.2)" />
    <rect x="490" y="190" width="520" height="640" rx="12" ry="12" fill="none" stroke="#1e3a5f" stroke-width="2" stroke-dasharray="10 8" opacity="0.92" />


<text x="506" y="226" fill="#1e40af" font-size="22" font-family="Menlo, Monaco, monospace" text-anchor="start" dominant-baseline="alphabetic"><tspan x="506" dy="0">前端业务域 (HashRouter)</tspan></text>

    <rect x="525" y="265" width="145" height="84" rx="12" ry="12" fill="#dbeafe" opacity="0.78" stroke="none" />

    <rect x="525" y="265" width="145" height="84" rx="12" ry="12" fill="none" stroke="#1e3a5f" stroke-width="3"  opacity="0.22" transform="translate(1.8 1.2)" />
    <rect x="525" y="265" width="145" height="84" rx="12" ry="12" fill="none" stroke="#1e3a5f" stroke-width="2"  opacity="0.92" />


<text x="597.5" y="292" fill="#374151" font-size="15" font-family="Menlo, Monaco, monospace" text-anchor="middle" dominant-baseline="alphabetic"><tspan x="597.5" dy="0">首页 /</tspan></text>

    <rect x="700" y="265" width="145" height="84" rx="12" ry="12" fill="#dbeafe" opacity="0.78" stroke="none" />

    <rect x="700" y="265" width="145" height="84" rx="12" ry="12" fill="none" stroke="#1e3a5f" stroke-width="3"  opacity="0.22" transform="translate(1.8 1.2)" />
    <rect x="700" y="265" width="145" height="84" rx="12" ry="12" fill="none" stroke="#1e3a5f" stroke-width="2"  opacity="0.92" />


<text x="772.5" y="292" fill="#374151" font-size="15" font-family="Menlo, Monaco, monospace" text-anchor="middle" dominant-baseline="alphabetic"><tspan x="772.5" dy="0">看市场</tspan><tspan x="772.5" dy="18.75">/market + 6 子页</tspan></text>

    <rect x="875" y="265" width="145" height="84" rx="12" ry="12" fill="#dbeafe" opacity="0.78" stroke="none" />

    <rect x="875" y="265" width="145" height="84" rx="12" ry="12" fill="none" stroke="#1e3a5f" stroke-width="3"  opacity="0.22" transform="translate(1.8 1.2)" />
    <rect x="875" y="265" width="145" height="84" rx="12" ry="12" fill="none" stroke="#1e3a5f" stroke-width="2"  opacity="0.92" />


<text x="947.5" y="292" fill="#374151" font-size="15" font-family="Menlo, Monaco, monospace" text-anchor="middle" dominant-baseline="alphabetic"><tspan x="947.5" dy="0">看竞争</tspan><tspan x="947.5" dy="18.75">/competition + 3 子页</tspan></text>

    <rect x="525" y="395" width="145" height="84" rx="12" ry="12" fill="#dbeafe" opacity="0.78" stroke="none" />

    <rect x="525" y="395" width="145" height="84" rx="12" ry="12" fill="none" stroke="#1e3a5f" stroke-width="3"  opacity="0.22" transform="translate(1.8 1.2)" />
    <rect x="525" y="395" width="145" height="84" rx="12" ry="12" fill="none" stroke="#1e3a5f" stroke-width="2"  opacity="0.92" />


<text x="597.5" y="422" fill="#374151" font-size="15" font-family="Menlo, Monaco, monospace" text-anchor="middle" dominant-baseline="alphabetic"><tspan x="597.5" dy="0">看用户</tspan><tspan x="597.5" dy="18.75">/users + 7 子页</tspan></text>

    <rect x="700" y="395" width="145" height="84" rx="12" ry="12" fill="#dbeafe" opacity="0.78" stroke="none" />

    <rect x="700" y="395" width="145" height="84" rx="12" ry="12" fill="none" stroke="#1e3a5f" stroke-width="3"  opacity="0.22" transform="translate(1.8 1.2)" />
    <rect x="700" y="395" width="145" height="84" rx="12" ry="12" fill="none" stroke="#1e3a5f" stroke-width="2"  opacity="0.92" />


<text x="772.5" y="422" fill="#374151" font-size="15" font-family="Menlo, Monaco, monospace" text-anchor="middle" dominant-baseline="alphabetic"><tspan x="772.5" dy="0">看行业</tspan><tspan x="772.5" dy="18.75">/industry + 11 子页</tspan></text>

    <rect x="875" y="395" width="145" height="84" rx="12" ry="12" fill="#dbeafe" opacity="0.78" stroke="none" />

    <rect x="875" y="395" width="145" height="84" rx="12" ry="12" fill="none" stroke="#1e3a5f" stroke-width="3"  opacity="0.22" transform="translate(1.8 1.2)" />
    <rect x="875" y="395" width="145" height="84" rx="12" ry="12" fill="none" stroke="#1e3a5f" stroke-width="2"  opacity="0.92" />


<text x="947.5" y="422" fill="#374151" font-size="15" font-family="Menlo, Monaco, monospace" text-anchor="middle" dominant-baseline="alphabetic"><tspan x="947.5" dy="0">看自己</tspan><tspan x="947.5" dy="18.75">/self</tspan></text>

    <rect x="525" y="525" width="145" height="84" rx="12" ry="12" fill="#dbeafe" opacity="0.78" stroke="none" />

    <rect x="525" y="525" width="145" height="84" rx="12" ry="12" fill="none" stroke="#1e3a5f" stroke-width="3"  opacity="0.22" transform="translate(1.8 1.2)" />
    <rect x="525" y="525" width="145" height="84" rx="12" ry="12" fill="none" stroke="#1e3a5f" stroke-width="2"  opacity="0.92" />


<text x="597.5" y="552" fill="#374151" font-size="15" font-family="Menlo, Monaco, monospace" text-anchor="middle" dominant-baseline="alphabetic"><tspan x="597.5" dy="0">AI助手</tspan><tspan x="597.5" dy="18.75">/ai-assistant + 6 子页</tspan></text>

    <rect x="700" y="525" width="145" height="84" rx="12" ry="12" fill="#dbeafe" opacity="0.78" stroke="none" />

    <rect x="700" y="525" width="145" height="84" rx="12" ry="12" fill="none" stroke="#1e3a5f" stroke-width="3"  opacity="0.22" transform="translate(1.8 1.2)" />
    <rect x="700" y="525" width="145" height="84" rx="12" ry="12" fill="none" stroke="#1e3a5f" stroke-width="2"  opacity="0.92" />


<text x="772.5" y="552" fill="#374151" font-size="15" font-family="Menlo, Monaco, monospace" text-anchor="middle" dominant-baseline="alphabetic"><tspan x="772.5" dy="0">AI图库 / 报告</tspan><tspan x="772.5" dy="18.75">/ai-gallery /reports</tspan></text>

    <rect x="875" y="525" width="145" height="84" rx="12" ry="12" fill="#dbeafe" opacity="0.78" stroke="none" />

    <rect x="875" y="525" width="145" height="84" rx="12" ry="12" fill="none" stroke="#1e3a5f" stroke-width="3"  opacity="0.22" transform="translate(1.8 1.2)" />
    <rect x="875" y="525" width="145" height="84" rx="12" ry="12" fill="none" stroke="#1e3a5f" stroke-width="2"  opacity="0.92" />


<text x="947.5" y="552" fill="#374151" font-size="15" font-family="Menlo, Monaco, monospace" text-anchor="middle" dominant-baseline="alphabetic"><tspan x="947.5" dy="0">数据管理 / 来源</tspan><tspan x="947.5" dy="18.75">/data /data-source</tspan></text>

    <rect x="1070" y="190" width="430" height="640" rx="12" ry="12" fill="#ecfdf5" opacity="0.78" stroke="none" />

    <rect x="1070" y="190" width="430" height="640" rx="12" ry="12" fill="none" stroke="#166534" stroke-width="3" stroke-dasharray="10 8" opacity="0.22" transform="translate(1.8 1.2)" />
    <rect x="1070" y="190" width="430" height="640" rx="12" ry="12" fill="none" stroke="#166534" stroke-width="2" stroke-dasharray="10 8" opacity="0.92" />


<text x="1086" y="226" fill="#1e40af" font-size="22" font-family="Menlo, Monaco, monospace" text-anchor="start" dominant-baseline="alphabetic"><tspan x="1086" dy="0">数据治理内核</tspan></text>

    <rect x="1105" y="275" width="350" height="84" rx="12" ry="12" fill="#dcfce7" opacity="0.78" stroke="none" />

    <rect x="1105" y="275" width="350" height="84" rx="12" ry="12" fill="none" stroke="#166534" stroke-width="3"  opacity="0.22" transform="translate(1.8 1.2)" />
    <rect x="1105" y="275" width="350" height="84" rx="12" ry="12" fill="none" stroke="#166534" stroke-width="2"  opacity="0.92" />


<text x="1280" y="302" fill="#374151" font-size="15" font-family="Menlo, Monaco, monospace" text-anchor="middle" dominant-baseline="alphabetic"><tspan x="1280" dy="0">sourceRegistry.ts</tspan><tspan x="1280" dy="18.75">45 来源条目</tspan></text>

    <rect x="1105" y="400" width="350" height="84" rx="12" ry="12" fill="#dcfce7" opacity="0.78" stroke="none" />

    <rect x="1105" y="400" width="350" height="84" rx="12" ry="12" fill="none" stroke="#166534" stroke-width="3"  opacity="0.22" transform="translate(1.8 1.2)" />
    <rect x="1105" y="400" width="350" height="84" rx="12" ry="12" fill="none" stroke="#166534" stroke-width="2"  opacity="0.92" />


<text x="1280" y="427" fill="#374151" font-size="15" font-family="Menlo, Monaco, monospace" text-anchor="middle" dominant-baseline="alphabetic"><tspan x="1280" dy="0">DataManage.tsx</tspan><tspan x="1280" dy="18.75">6 模块 / 27 表 / 血缘</tspan></text>

    <rect x="1105" y="525" width="350" height="84" rx="12" ry="12" fill="#dcfce7" opacity="0.78" stroke="none" />

    <rect x="1105" y="525" width="350" height="84" rx="12" ry="12" fill="none" stroke="#166534" stroke-width="3"  opacity="0.22" transform="translate(1.8 1.2)" />
    <rect x="1105" y="525" width="350" height="84" rx="12" ry="12" fill="none" stroke="#166534" stroke-width="2"  opacity="0.92" />


<text x="1280" y="552" fill="#374151" font-size="15" font-family="Menlo, Monaco, monospace" text-anchor="middle" dominant-baseline="alphabetic"><tspan x="1280" dy="0">tableGovernance</tspan><tspan x="1280" dy="18.75">owner / steward / PII / freshness</tspan></text>

    <rect x="1105" y="650" width="350" height="84" rx="12" ry="12" fill="#dcfce7" opacity="0.78" stroke="none" />

    <rect x="1105" y="650" width="350" height="84" rx="12" ry="12" fill="none" stroke="#166534" stroke-width="3"  opacity="0.22" transform="translate(1.8 1.2)" />
    <rect x="1105" y="650" width="350" height="84" rx="12" ry="12" fill="none" stroke="#166534" stroke-width="2"  opacity="0.92" />


<text x="1280" y="677" fill="#374151" font-size="15" font-family="Menlo, Monaco, monospace" text-anchor="middle" dominant-baseline="alphabetic"><tspan x="1280" dy="0">periodic-data/latest.json</tspan><tspan x="1280" dy="18.75">2026-06-H1 状态</tspan></text>

    <rect x="1560" y="190" width="410" height="640" rx="12" ry="12" fill="#fff7ed" opacity="0.78" stroke="none" />

    <rect x="1560" y="190" width="410" height="640" rx="12" ry="12" fill="none" stroke="#b45309" stroke-width="3" stroke-dasharray="10 8" opacity="0.22" transform="translate(1.8 1.2)" />
    <rect x="1560" y="190" width="410" height="640" rx="12" ry="12" fill="none" stroke="#b45309" stroke-width="2" stroke-dasharray="10 8" opacity="0.92" />


<text x="1576" y="226" fill="#1e40af" font-size="22" font-family="Menlo, Monaco, monospace" text-anchor="start" dominant-baseline="alphabetic"><tspan x="1576" dy="0">采集与连接器</tspan></text>

    <rect x="1595" y="265" width="335" height="74" rx="12" ry="12" fill="#fef3c7" opacity="0.78" stroke="none" />

    <rect x="1595" y="265" width="335" height="74" rx="12" ry="12" fill="none" stroke="#b45309" stroke-width="3"  opacity="0.22" transform="translate(1.8 1.2)" />
    <rect x="1595" y="265" width="335" height="74" rx="12" ry="12" fill="none" stroke="#b45309" stroke-width="2"  opacity="0.92" />


<text x="1762.5" y="292" fill="#374151" font-size="15" font-family="Menlo, Monaco, monospace" text-anchor="middle" dominant-baseline="alphabetic"><tspan x="1762.5" dy="0">public-url-check</tspan><tspan x="1762.5" dy="18.75">8 类公开来源</tspan></text>

    <rect x="1595" y="375" width="335" height="74" rx="12" ry="12" fill="#fef3c7" opacity="0.78" stroke="none" />

    <rect x="1595" y="375" width="335" height="74" rx="12" ry="12" fill="none" stroke="#b45309" stroke-width="3"  opacity="0.22" transform="translate(1.8 1.2)" />
    <rect x="1595" y="375" width="335" height="74" rx="12" ry="12" fill="none" stroke="#b45309" stroke-width="2"  opacity="0.92" />


<text x="1762.5" y="402" fill="#374151" font-size="15" font-family="Menlo, Monaco, monospace" text-anchor="middle" dominant-baseline="alphabetic"><tspan x="1762.5" dy="0">local-file-check</tspan><tspan x="1762.5" dy="18.75">2 个代码资产</tspan></text>

    <rect x="1595" y="485" width="335" height="74" rx="12" ry="12" fill="#fef3c7" opacity="0.78" stroke="none" />

    <rect x="1595" y="485" width="335" height="74" rx="12" ry="12" fill="none" stroke="#b45309" stroke-width="3"  opacity="0.22" transform="translate(1.8 1.2)" />
    <rect x="1595" y="485" width="335" height="74" rx="12" ry="12" fill="none" stroke="#b45309" stroke-width="2"  opacity="0.92" />


<text x="1762.5" y="512" fill="#374151" font-size="15" font-family="Menlo, Monaco, monospace" text-anchor="middle" dominant-baseline="alphabetic"><tspan x="1762.5" dy="0">manual-required</tspan><tspan x="1762.5" dy="18.75">12 个人工/报告来源</tspan></text>

    <rect x="1595" y="595" width="335" height="74" rx="12" ry="12" fill="#fef3c7" opacity="0.78" stroke="none" />

    <rect x="1595" y="595" width="335" height="74" rx="12" ry="12" fill="none" stroke="#b45309" stroke-width="3"  opacity="0.22" transform="translate(1.8 1.2)" />
    <rect x="1595" y="595" width="335" height="74" rx="12" ry="12" fill="none" stroke="#b45309" stroke-width="2"  opacity="0.92" />


<text x="1762.5" y="622" fill="#374151" font-size="15" font-family="Menlo, Monaco, monospace" text-anchor="middle" dominant-baseline="alphabetic"><tspan x="1762.5" dy="0">connector-required</tspan><tspan x="1762.5" dy="18.75">23 个授权来源</tspan></text>

    <rect x="1595" y="705" width="335" height="74" rx="12" ry="12" fill="#fef3c7" opacity="0.78" stroke="none" />

    <rect x="1595" y="705" width="335" height="74" rx="12" ry="12" fill="none" stroke="#b45309" stroke-width="3"  opacity="0.22" transform="translate(1.8 1.2)" />
    <rect x="1595" y="705" width="335" height="74" rx="12" ry="12" fill="none" stroke="#b45309" stroke-width="2"  opacity="0.92" />


<text x="1762.5" y="732" fill="#374151" font-size="15" font-family="Menlo, Monaco, monospace" text-anchor="middle" dominant-baseline="alphabetic"><tspan x="1762.5" dy="0">connector backlog</tspan><tspan x="1762.5" dy="18.75">10 组接入任务</tspan></text>

    <rect x="2030" y="190" width="400" height="640" rx="12" ry="12" fill="#f8fafc" opacity="0.78" stroke="none" />

    <rect x="2030" y="190" width="400" height="640" rx="12" ry="12" fill="none" stroke="#334155" stroke-width="3" stroke-dasharray="10 8" opacity="0.22" transform="translate(1.8 1.2)" />
    <rect x="2030" y="190" width="400" height="640" rx="12" ry="12" fill="none" stroke="#334155" stroke-width="2" stroke-dasharray="10 8" opacity="0.92" />


<text x="2046" y="226" fill="#1e40af" font-size="22" font-family="Menlo, Monaco, monospace" text-anchor="start" dominant-baseline="alphabetic"><tspan x="2046" dy="0">部署与验收</tspan></text>

    <rect x="2065" y="265" width="330" height="74" rx="12" ry="12" fill="#f1f5f9" opacity="0.78" stroke="none" />

    <rect x="2065" y="265" width="330" height="74" rx="12" ry="12" fill="none" stroke="#334155" stroke-width="3"  opacity="0.22" transform="translate(1.8 1.2)" />
    <rect x="2065" y="265" width="330" height="74" rx="12" ry="12" fill="none" stroke="#334155" stroke-width="2"  opacity="0.92" />


<text x="2230" y="292" fill="#374151" font-size="15" font-family="Menlo, Monaco, monospace" text-anchor="middle" dominant-baseline="alphabetic"><tspan x="2230" dy="0">test / lint / npm audit</tspan><tspan x="2230" dy="18.75">build 质量门</tspan></text>

    <rect x="2065" y="385" width="330" height="74" rx="12" ry="12" fill="#f1f5f9" opacity="0.78" stroke="none" />

    <rect x="2065" y="385" width="330" height="74" rx="12" ry="12" fill="none" stroke="#334155" stroke-width="3"  opacity="0.22" transform="translate(1.8 1.2)" />
    <rect x="2065" y="385" width="330" height="74" rx="12" ry="12" fill="none" stroke="#334155" stroke-width="2"  opacity="0.92" />


<text x="2230" y="412" fill="#374151" font-size="15" font-family="Menlo, Monaco, monospace" text-anchor="middle" dominant-baseline="alphabetic"><tspan x="2230" dy="0">Vite dist 静态包</tspan><tspan x="2230" dy="18.75">assets + periodic-data</tspan></text>

    <rect x="2065" y="505" width="330" height="74" rx="12" ry="12" fill="#f1f5f9" opacity="0.78" stroke="none" />

    <rect x="2065" y="505" width="330" height="74" rx="12" ry="12" fill="none" stroke="#334155" stroke-width="3"  opacity="0.22" transform="translate(1.8 1.2)" />
    <rect x="2065" y="505" width="330" height="74" rx="12" ry="12" fill="none" stroke="#334155" stroke-width="2"  opacity="0.92" />


<text x="2230" y="532" fill="#374151" font-size="15" font-family="Menlo, Monaco, monospace" text-anchor="middle" dominant-baseline="alphabetic"><tspan x="2230" dy="0">腾讯云轻量服务器</tspan><tspan x="2230" dy="18.75">/opt/mkt53/html</tspan></text>

    <rect x="2065" y="625" width="330" height="74" rx="12" ry="12" fill="#f1f5f9" opacity="0.78" stroke="none" />

    <rect x="2065" y="625" width="330" height="74" rx="12" ry="12" fill="none" stroke="#334155" stroke-width="3"  opacity="0.22" transform="translate(1.8 1.2)" />
    <rect x="2065" y="625" width="330" height="74" rx="12" ry="12" fill="none" stroke="#334155" stroke-width="2"  opacity="0.92" />


<text x="2230" y="652" fill="#374151" font-size="15" font-family="Menlo, Monaco, monospace" text-anchor="middle" dominant-baseline="alphabetic"><tspan x="2230" dy="0">ai_video_nginx</tspan><tspan x="2230" dy="18.75">mkt.lute-tlz-dddd.top</tspan></text>

    <rect x="2065" y="745" width="330" height="74" rx="12" ry="12" fill="#f1f5f9" opacity="0.78" stroke="none" />

    <rect x="2065" y="745" width="330" height="74" rx="12" ry="12" fill="none" stroke="#334155" stroke-width="3"  opacity="0.22" transform="translate(1.8 1.2)" />
    <rect x="2065" y="745" width="330" height="74" rx="12" ry="12" fill="none" stroke="#334155" stroke-width="2"  opacity="0.92" />


<text x="2230" y="772" fill="#374151" font-size="15" font-family="Menlo, Monaco, monospace" text-anchor="middle" dominant-baseline="alphabetic"><tspan x="2230" dy="0">smoke + Playwright E2E</tspan><tspan x="2230" dy="18.75">14 prod / 46 local</tspan></text>

    <line x1="431.8" y1="311.2" x2="491.8" y2="311.2" stroke="#1e3a5f" stroke-width="3"  opacity="0.2" marker-end="url(#arrowhead)"/>
    <line x1="430" y1="310" x2="490" y2="310" stroke="#1e3a5f" stroke-width="2"  opacity="0.92" marker-end="url(#arrowhead)"/>

<text x="424" y="303" fill="#64748b" font-size="13" font-family="Menlo, Monaco, monospace" text-anchor="start" dominant-baseline="alphabetic"><tspan x="424" dy="0">业务问题进入页面域</tspan></text>

    <line x1="431.8" y1="431.2" x2="491.8" y2="431.2" stroke="#1e3a5f" stroke-width="3"  opacity="0.2" marker-end="url(#arrowhead)"/>
    <line x1="430" y1="430" x2="490" y2="430" stroke="#1e3a5f" stroke-width="2"  opacity="0.92" marker-end="url(#arrowhead)"/>

<text x="424" y="423" fill="#64748b" font-size="13" font-family="Menlo, Monaco, monospace" text-anchor="start" dominant-baseline="alphabetic"><tspan x="424" dy="0">业务问题进入页面域</tspan></text>

    <line x1="431.8" y1="551.2" x2="491.8" y2="551.2" stroke="#1e3a5f" stroke-width="3"  opacity="0.2" marker-end="url(#arrowhead)"/>
    <line x1="430" y1="550" x2="490" y2="550" stroke="#1e3a5f" stroke-width="2"  opacity="0.92" marker-end="url(#arrowhead)"/>

<text x="424" y="543" fill="#64748b" font-size="13" font-family="Menlo, Monaco, monospace" text-anchor="start" dominant-baseline="alphabetic"><tspan x="424" dy="0">业务问题进入页面域</tspan></text>

    <line x1="431.8" y1="671.2" x2="491.8" y2="671.2" stroke="#1e3a5f" stroke-width="3"  opacity="0.2" marker-end="url(#arrowhead)"/>
    <line x1="430" y1="670" x2="490" y2="670" stroke="#1e3a5f" stroke-width="2"  opacity="0.92" marker-end="url(#arrowhead)"/>

<text x="424" y="663" fill="#64748b" font-size="13" font-family="Menlo, Monaco, monospace" text-anchor="start" dominant-baseline="alphabetic"><tspan x="424" dy="0">业务问题进入页面域</tspan></text>

    <line x1="1011.8" y1="441.2" x2="1071.8" y2="441.2" stroke="#1e3a5f" stroke-width="3"  opacity="0.2" marker-end="url(#arrowhead)"/>
    <line x1="1010" y1="440" x2="1070" y2="440" stroke="#1e3a5f" stroke-width="2"  opacity="0.92" marker-end="url(#arrowhead)"/>

<text x="1012" y="433" fill="#64748b" font-size="13" font-family="Menlo, Monaco, monospace" text-anchor="start" dominant-baseline="alphabetic"><tspan x="1012" dy="0">页面读取/展示</tspan></text>

    <line x1="1501.8" y1="441.2" x2="1561.8" y2="441.2" stroke="#1e3a5f" stroke-width="3"  opacity="0.2" marker-end="url(#arrowhead)"/>
    <line x1="1500" y1="440" x2="1560" y2="440" stroke="#1e3a5f" stroke-width="2"  opacity="0.92" marker-end="url(#arrowhead)"/>

<text x="1514" y="433" fill="#64748b" font-size="13" font-family="Menlo, Monaco, monospace" text-anchor="start" dominant-baseline="alphabetic"><tspan x="1514" dy="0">分类采集</tspan></text>

    <line x1="1971.8" y1="441.2" x2="2031.8" y2="441.2" stroke="#1e3a5f" stroke-width="3"  opacity="0.2" marker-end="url(#arrowhead)"/>
    <line x1="1970" y1="440" x2="2030" y2="440" stroke="#1e3a5f" stroke-width="2"  opacity="0.92" marker-end="url(#arrowhead)"/>

<text x="1984" y="433" fill="#64748b" font-size="13" font-family="Menlo, Monaco, monospace" text-anchor="start" dominant-baseline="alphabetic"><tspan x="1984" dy="0">构建部署</tspan></text>

    <line x1="2231.8" y1="746.2" x2="2231.8" y2="821.2" stroke="#047857" stroke-width="3"  opacity="0.2" marker-end="url(#arrowhead)"/>
    <line x1="2230" y1="745" x2="2230" y2="820" stroke="#047857" stroke-width="2"  opacity="0.92" marker-end="url(#arrowhead)"/>

<text x="2214" y="775.5" fill="#047857" font-size="13" font-family="Menlo, Monaco, monospace" text-anchor="start" dominant-baseline="alphabetic"><tspan x="2214" dy="0">线上验收</tspan></text>

    <rect x="1050" y="860" width="930" height="110" rx="12" ry="12" fill="#1e293b" opacity="0.78" stroke="none" />

    <rect x="1050" y="860" width="930" height="110" rx="12" ry="12" fill="none" stroke="#334155" stroke-width="3"  opacity="0.22" transform="translate(1.8 1.2)" />
    <rect x="1050" y="860" width="930" height="110" rx="12" ry="12" fill="none" stroke="#334155" stroke-width="2"  opacity="0.92" />


<text x="1064" y="887" fill="#ffffff" font-size="15" font-family="Menlo, Monaco, monospace" text-anchor="start" dominant-baseline="alphabetic"><tspan x="1064" dy="0">当前线上数据状态</tspan></text>
<text x="1064" y="916" fill="#22c55e" font-size="14" font-family="Menlo, Monaco, monospace" text-anchor="start" dominant-baseline="alphabetic"><tspan x="1064" dy="0">{ total:45, ok:10, manual:12, connector:23, issues:0 }</tspan></text>
  </g>
</svg>